<svg width="100" height="30" viewBox="0 0 73 22" fill="none" xmlns="http://www.w3.org/2000/svg">
    <path d="M3.36512 10.27H10.9083V7.62751H3.39925V3.61567H11.2837V1.07434H0.502914V17.0131H11.4373V14.4496H3.36512V10.27Z" fill="#FF973F"/>
    <path d="M22.5691 13.1666L17.2299 1.07434H14.2019V17.0131H16.9008V5.91273L21.2599 17.0131H23.7491L28.0205 5.91273V17.0131H30.7169V1.07434H27.7986L22.5691 13.1666Z" fill="#FF973F"/>
    <path d="M42.0709 5.31079C39.9206 5.31079 38.1286 6.62587 36.6975 9.25602L37.1486 5.31079H34.5619L32.2506 17.0132H35.1689L36.2806 11.4075C37.6679 8.9328 39.0551 7.69668 40.4423 7.69668C41.4906 7.69668 41.9246 8.15806 41.7418 9.07837L40.179 17.0132H43.0973L44.66 9.11044C45.1574 6.57652 44.2943 5.31079 42.0709 5.31079Z" fill="#FF973F"/>
    <path d="M51.9811 1.07434H49.0629L48.6021 3.41582H51.5204L51.9811 1.07434Z" fill="#FF973F"/>
    <path d="M48.2266 5.31079L45.9154 17.0132H48.8337L51.1449 5.31079H48.2266Z" fill="#FF973F"/>
    <path d="M60.3509 5.31082H56.8816C57.2034 3.66019 58.1957 2.8361 59.8535 2.8361C60.7044 2.8361 61.4651 2.98414 62.1331 3.28269L62.5963 0.941212C61.8844 0.645135 61.0555 0.494629 60.1071 0.494629C56.6427 0.494629 54.5948 2.10085 53.9633 5.31082L51.8301 16.1201C51.4766 17.8892 50.7427 19.2758 49.6286 20.2775L51.5985 21.8936C53.2271 20.4083 54.2778 18.4838 54.7484 16.1201L56.4208 7.64982H59.8901L60.3509 5.31082Z" fill="#FF973F"/>
    <path d="M69.5786 5.31079L68.4669 10.9165C67.0796 13.3912 65.6924 14.6273 64.3052 14.6273C63.2544 14.6273 62.8229 14.166 63.0058 13.2457L64.5685 5.31079H61.6502L60.0875 13.2136C59.5877 15.7475 60.4507 17.0157 62.6742 17.0157C64.8245 17.0157 66.6164 15.7006 68.0475 13.0705L67.2649 17.0157C67.0163 18.279 65.8046 18.9106 63.6323 18.9106C62.2158 18.9106 60.9822 18.7255 59.9339 18.353L59.4707 20.6945C60.4995 21.067 61.7234 21.2521 63.1472 21.2521C67.2796 21.2521 69.6249 19.8408 70.1832 17.0157L72.4944 5.31326H69.5786V5.31079Z" fill="#FF973F"/>
</svg>
