<svg width="100" height="30" viewBox="0 0 100 30" fill="none" xmlns="http://www.w3.org/2000/svg">
<g clip-path="url(#clip0_1630_214204)">
<path d="M17.7037 14.7405C17.7037 15.8811 17.0289 16.5343 15.9058 16.5343H4.63389C5.08376 19.208 7.07488 20.9695 9.9974 20.9695C11.8919 20.9695 13.3698 20.2198 14.3012 19.1098C14.5895 18.7832 14.9427 18.5886 15.3926 18.5886C16.1957 18.5886 16.7406 19.1436 16.7406 19.9254C16.7406 20.2182 16.644 20.5126 16.4523 20.7732C15.0077 22.5348 12.7267 23.611 9.9974 23.611C4.98713 23.611 1.67969 20.3164 1.67969 15.4259C1.67969 10.5354 4.98713 7.24072 9.83583 7.24072C14.363 7.24072 17.7037 10.5016 17.7037 14.6762V14.7422V14.7405ZM4.69884 13.9909H14.9744C14.4279 11.5119 12.5017 9.88223 9.83583 9.88223C7.16992 9.88223 5.24374 11.5135 4.69725 13.9909H4.69884Z" fill="white"/>
<path d="M44.4532 14.1851V21.8812C44.4532 22.8272 43.94 23.4143 43.072 23.4143C42.2039 23.4143 41.659 22.8272 41.659 21.8812V14.5101C41.659 11.4777 40.406 9.87861 38.03 9.87861C35.654 9.87861 34.0478 11.8348 34.0478 15.0313V21.8796C34.0478 22.8255 33.5345 23.4127 32.6348 23.4127C31.8 23.4127 31.2535 22.8255 31.2535 21.8796V14.5085C31.2535 11.4761 30.0006 9.877 27.5929 9.877C25.1851 9.877 23.6106 11.8332 23.6106 15.0297V21.878C23.6106 22.8239 23.0974 23.4111 22.1977 23.4111C21.2979 23.4111 20.8164 22.8239 20.8164 21.878V8.99543C20.8164 8.01733 21.3296 7.43015 22.1977 7.43015C23.0657 7.43015 23.6106 8.01733 23.6106 8.99543V9.38634H23.6756C24.6703 7.98354 26.2765 7.23389 28.236 7.23389C30.5154 7.23389 32.1533 8.17981 33.053 9.94135H33.1179C34.1777 8.21359 36.0088 7.23389 38.5448 7.23389C42.4954 7.23389 44.4532 9.64696 44.4532 14.1803V14.1851Z" fill="white"/>
<path d="M63.1123 14.5121V21.8832C63.1123 22.8292 62.5658 23.4164 61.6993 23.4164C60.8329 23.4164 60.3181 22.8292 60.3181 21.8832V14.8065C60.3181 11.5778 58.7768 9.88223 55.8226 9.88223C52.8684 9.88223 50.9739 11.9687 50.9739 15.3937V21.8832C50.9739 22.8292 50.4607 23.4164 49.561 23.4164C48.6612 23.4164 48.1797 22.8292 48.1797 21.8832V8.96849C48.1797 8.02256 48.6929 7.43538 49.561 7.43538C50.429 7.43538 50.9739 8.02256 50.9739 8.96849V9.75193H51.0389C52.1952 8.15448 54.058 7.24072 56.4974 7.24072C60.8012 7.24072 63.1123 9.7841 63.1123 14.5137V14.5121Z" fill="white"/>
<path d="M66.4844 3.25465C66.4844 2.2106 67.1592 1.46094 68.2189 1.46094C69.2786 1.46094 69.9851 2.2106 69.9851 3.25465C69.9851 4.29871 69.3103 5.04837 68.2189 5.04837C67.1275 5.04837 66.4844 4.29871 66.4844 3.25465ZM69.6318 9.00098V21.8836C69.6318 22.8295 69.1186 23.4167 68.2189 23.4167C67.3192 23.4167 66.8376 22.8295 66.8376 21.8836V9.00098C66.8376 8.02288 67.3508 7.43571 68.2189 7.43571C69.0869 7.43571 69.6318 8.02288 69.6318 9.00098Z" fill="white"/>
<path d="M76.5325 6.09863V7.63174H78.9592C79.8257 7.63174 80.3722 8.15297 80.3722 8.96858C80.3722 9.7842 79.8257 10.2732 78.9592 10.2732H76.5325V21.8833C76.5325 22.8293 76.0193 23.4164 75.1196 23.4164C74.2198 23.4164 73.7383 22.8293 73.7383 21.8833V6.19677C73.7383 2.31655 75.8894 0 79.5501 0C81.9594 0 83.7889 0.978096 84.7203 2.70746C84.8486 2.96808 84.9136 3.19651 84.9136 3.49091C84.9136 4.30653 84.3671 4.82775 83.6289 4.82775C83.1474 4.82775 82.7292 4.59931 82.5043 4.20839C81.9578 3.29464 81.0264 2.64312 79.7101 2.64312C77.7189 2.64312 76.5309 3.91561 76.5309 6.10024L76.5325 6.09863Z" fill="white"/>
<path d="M97.509 9.32344V22.2704C97.509 27.0965 94.5865 30.0002 89.8012 30.0002C86.9436 30.0002 84.5992 29.1846 83.3146 27.489C83.1546 27.2606 83.0247 26.934 83.0247 26.5753C83.0247 25.7919 83.5712 25.2063 84.406 25.2063C84.8558 25.2063 85.1125 25.3688 85.434 25.6953C86.4937 26.7716 87.8417 27.3587 89.7378 27.3587C92.8536 27.3587 94.7148 25.4669 94.7148 22.4023V21.1941H94.6499C93.4935 22.7916 91.9475 23.5445 89.5398 23.5445C85.301 23.5445 82.9883 21.0011 82.9883 16.2715V9.32505C82.9883 8.34695 83.5348 7.75977 84.4012 7.75977C85.2677 7.75977 85.7825 8.34695 85.7825 9.32505V15.9787C85.7825 19.2074 87.3238 20.8804 90.2146 20.903C92.8267 20.9239 94.7275 18.1891 94.7148 15.8741C94.699 12.8803 94.7148 9.32505 94.7148 9.32505C94.7148 8.34695 95.2613 7.75977 96.0961 7.75977C96.9958 7.75977 97.509 8.34695 97.509 9.32505V9.32344Z" fill="white"/>
</g>
<defs>
<clipPath id="clip0_1630_214204">
<rect width="100" height="30" fill="white"/>
</clipPath>
</defs>
</svg>
